<?xml version="1.0" encoding="utf-8"?>
<!-- Generator: Adobe Illustrator 28.3.0, SVG Export Plug-In . SVG Version: 6.00 Build 0)  -->
<svg version="1.1" id="Laag_1" xmlns="http://www.w3.org/2000/svg" xmlns:xlink="http://www.w3.org/1999/xlink" x="0px" y="0px"
	 viewBox="0 0 1000 1000" style="enable-background:new 0 0 1000 1000;" xml:space="preserve">
<style type="text/css">
	.st0{fill:#00FF00;stroke:#000000;stroke-width:69.9854;stroke-miterlimit:10;}
	.st1{fill:none;stroke:#000000;stroke-width:69.9854;stroke-miterlimit:10;}
	.st2{fill:#262122;}
	.st3{fill:#ECECEC;}
	.st4{fill:#D6854A;}
	.st5{fill:#46200A;}
	.st6{fill:#F8862D;}
	.st7{fill:#070504;}
	.st8{fill:#FD4756;}
	.st9{fill:#82D062;}
	.st10{fill:#96D87C;}
	.st11{fill:#F52C3A;}
	.st12{fill:#060604;}
	.st13{fill:#F98B48;}
	.st14{fill:#FDA978;}
	.st15{fill:#2DDDB4;}
	.st16{fill:#03BC6E;}
</style>
<g>
	<path class="st2" d="M57.2,734.2c2.6-7.6,5.3-15.2,7.7-22.9c2.2-6.7,5.5-12.8,9.5-18.6c3.5-1.6,5.5-4.3,5.9-8.2
		c16.9-13.7,34.1-26.7,56.6-30.1c24.5-3.7,47.4,0,68.2,13.7c5.1,3.3,7.9,3.1,12.2-1.2c30.2-30.6,60.7-61,91.1-91.3
		c3-3,4.8-5.8,4.2-10.4C305.5,511,317,459,333.1,407.9c24.5-78,60.8-150.6,106.5-218.3c23.9-35.5,50.1-68.9,85.3-94.3
		c34.3-24.8,72.1-40.7,113.9-46.9c3.7-0.6,8,0.4,10.9-3.2c17.2,0,34.5,0,51.7,0c10.1,3.8,20.9,3.6,31.3,5.7
		c25,5.2,48.2,15.2,71.3,25.6c3,3.4,6.7,5.6,11,6.8c1.1,1.9,2.8,2.7,4.8,3.1c2.5,2.6,5.5,4.5,8.8,6c20.5,15.4,38.8,33.2,55.4,52.7
		c0.1,2.1,1.5,3.3,3.2,4.2l0,0.6l0.6,0.3c0.1,1.9,1.4,2.9,2.7,4l0.5-0.3c0,0-0.5,0.3-0.5,0.3c1.2,2,1.8,4.4,4.5,5.2
		c0.6,1.7,0.4,3.9,2.5,4.9c2.2,3.7,3.4,8,7,10.8c16,30.3,27.8,61.9,32.1,96.2c7.1,56.7-2.5,110-29.7,160.3
		c-27,49.9-69.1,84.7-115.2,115.3c-67.4,44.8-139.2,80.5-216.4,104.8c-45,14.1-90.8,24.1-138.4,21.8c-0.6,0-1.2,0.1-1.7-0.1
		c-16.9-5.6-27.8,2.7-39,14.6c-25.8,27.5-52.8,53.8-79.5,80.3c-3.7,3.7-4,6.1-1.1,10.3c11,16,17,34.1,15.4,53.3
		c-3,36.9-17.5,67.7-52.7,84.9c-33.2,16.2-65.8,13.9-96.5-5.8c-20.9-13.5-34.7-33.2-39.9-57.9c-1.3-6.1-3.8-8.9-9.9-10.4
		c-37.1-9.2-60.9-32.4-71.4-69.2c-0.7-2.3-0.2-5.3-3.2-6.5C57.2,756,57.2,745.1,57.2,734.2z M470.7,210.6c-3.1,0-6-0.7-7.3,3.8
		c-1.4,4.8-5.4,8.5-8.2,12.7c-12,18.5-22.6,37.7-33.1,57c-11.9,21.7-22.2,44.2-30.9,67.5c-4.2,11.2-12.8,20.2-14.8,32.9
		c-0.6,4-1.6,9.1-3.6,13.5c-7.5,16.7-13.5,33.9-12.3,52.6c-0.2,2.1-0.5,4.2-0.7,6.3c-0.5,0.5-0.9,0.9-1.4,1.4c-3.5,0-5.3,1.6-5,5.3
		c0.3,3.8-2.1,7.2-2.4,10.4c-0.8,6.5-4.3,12.3-4.3,18.8c-0.2,23.8-0.2,47.6,0,71.4c0.1,9.3,7.1,18.7,15,18
		c10.7-0.8,17.4,5.8,24.6,11.2c2.8,2,7,1.9,8.6,6.2c3.7,9.8,8.1,19.3,10,29.6c0.6,3.4,2.5,4.1,5.2,5.6c5.9,3.5,12.1,3.2,18.3,2.8
		c6.9-0.4,14.2,3.9,19.5,2.3c7.2-2.1,14.1-2.5,20.9-2c13.5,1,26.6-1.4,39.5-4.3c5.6-1.2,12-1.2,16.9-4.2c9.1-5.7,19.7-6.8,29.5-8.4
		c14.1-2.3,26.3-9,39.5-13c9.1-2.8,19.2-3.9,28.1-10.8c9.8-7.5,24-8.7,35.8-14.6c9.6-4.8,19.4-9.6,29.1-14.4c3-1.5,4.5-3.3,4.3-6.6
		c28-14.8,55.1-31.2,81.9-48.1c6.6,1.2,11.2-1.4,15.7-6.2c8-8.7,19.7-12.7,28-21.4c10.1-10.6,22.9-18.8,32-30.2
		c7-8.7,14.2-17.5,20.3-27.4c9.5-15.6,18-31,22.6-48.6c0.4-1.4,0.9-3.3,1.9-3.8c5.6-2.3,3.9-7.1,4.2-11.2c0.1-1.7,0.2-3.5,0.9-5
		c4.2-8.4,5-18.1,5.4-26.8c1.3-27.9,1.8-55.9-5.9-83.5c-4.5-16.2-10.8-31.3-17.7-46.3c-3.3-7.1-8.4-13.2-11.9-20.3
		c-4.7-9.6-13.4-16.1-18.8-25.1c-1.9-3.2-4.9-2.2-7.7-2.2c-4.5-4.5-8.9-8.9-13.4-13.4c1.3-5-3.4-5.9-5.5-8.8
		c-9.3-12.8-23.2-19.3-36.3-25.7c-14.4-7.2-27.9-16.2-45.2-18.9c-13.6-2.1-27.7-6.7-41.4-8.4c-22.4-2.8-45.2-1.1-67.7,3.8
		c-21.1,4.6-40.8,12.6-60.5,21.2c-14.3,6.3-26.7,15.4-37.9,26c-2.4,2.3-5.8,2.6-7.9,4.8c-7,7.6-15.1,14.5-20.8,23.3
		c-2.2,3.3-5.9,3.7-8.5,7.4c-6.8,9.9-11.7,21.4-21.1,29.4C471.5,200.3,469.6,204.8,470.7,210.6L470.7,210.6z M239.9,887.9
		c19.5-0.7,37.7-12.1,48-35c9.4-20.9,4.1-46.1-12.7-63.5c-12.8-13.2-12.9-22,0.1-35.2c31.1-31.3,62.4-62.4,93.6-93.7
		c2.2-2.2,6.1-3.9,4.3-8.4c-3.1-7.6-2.9-15.7-3.8-23.6c-1-8.7-4.7-12.5-13.6-13.5c-6.8-0.8-13.8-1.1-20.4-3.1
		c-5.3-1.6-8.2-0.1-11.8,3.5c-30.9,31.1-61.9,62.2-93,93c-14.1,14-21.8,13.8-36.4,0c-19.5-18.4-47.1-21.7-69.7-8.5
		c-21.4,12.6-32.7,38.7-26.9,61.9c6.7,26.5,27.8,43.7,55.1,44.7c18.8,0.7,24.4,6.5,25.1,25.9C178.9,863.5,203.8,887.7,239.9,887.9z"
		/>
	<path class="st3" d="M239.9,887.9c-36.1-0.1-60.9-24.4-62.1-55.4c-0.7-19.4-6.3-25.2-25.1-25.9c-27.3-1-48.4-18.2-55.1-44.7
		c-5.9-23.2,5.5-49.4,26.9-61.9c22.6-13.3,50.2-9.9,69.7,8.5c14.6,13.8,22.2,14,36.4,0c31.2-30.9,62.1-61.9,93-93
		c3.6-3.6,6.4-5.1,11.8-3.5c6.5,1.9,13.5,2.2,20.4,3.1c8.9,1.1,12.7,4.8,13.6,13.5c0.9,7.9,0.7,16.1,3.8,23.6
		c1.8,4.5-2.1,6.2-4.3,8.4c-31.2,31.3-62.5,62.4-93.6,93.7c-13.1,13.1-12.9,22-0.1,35.2c16.8,17.3,22.1,42.6,12.7,63.5
		C277.5,875.8,259.4,887.2,239.9,887.9z"/>
	<path class="st4" d="M359.8,457c0.2-2.1,0.5-4.2,0.7-6.3c0.5-1,1.1-2,1.4-3.1c19.2-71.6,50.2-138.1,87.6-201.8
		c6.9-11.8,15.8-22.4,21.2-35.1c0,0,0,0,0,0c11-10.1,17.6-23.6,27-35c25-30.3,53.4-55.7,89.5-71.8c20.6-9.2,41.9-15.2,64.3-17.8
		c47.8-5.6,92.6,3.3,134.8,26.3c15.3,8.3,28,20.3,42.4,29.8c4.5,4.5,8.9,8.9,13.4,13.4c0.7,1.2,1.2,2.6,2.1,3.7
		c28.3,32.1,46.1,69.3,52.8,111.6c6.9,43.3,1.4,85-16.2,125.1c-18,41.2-48.1,72.3-83.3,99.1c-8.2,6.2-17.5,10.8-24.5,18.6
		c-26.8,16.9-53.9,33.3-81.9,48.1c-2.4,1-4.8,1.7-7.1,2.9c-50.8,25.3-102.9,47.1-158.3,60.1c-36.2,8.5-72.6,13.5-109.8,6.7
		c-5.7-1-7.3-3.2-8-8.6c-3.3-25.8-20.6-43.5-46.2-46.4c-7-0.8-8.4-3.8-9.4-9.3c-3.3-19.3-3.6-38.9-1.6-58.2
		c1.5-15.2,2.1-30.7,8-45.2c2.5,2.3,1.2,5.4,1.6,8.1c1.6,11.6-5.2,22.2-3.7,33.9c0.8,6.2,0.1,12.6,0,18.9c0,0.3-0.5,0.6-0.7,0.9
		c-2-1.7,0.5-4.8-1.7-6.1c-3.9,15.3,2.5,29.8,3.1,44.8c0.1,2.5,1,7.9,5.4,8.1c11.5,0.4,22.1,3.4,30.4,11.3
		c9.4,8.9,18.2,18.8,18.7,32.8c0.2,5,0.6,8.6,6.9,7.9c0.6-0.1,3-0.5,0.9,1.4c-0.7,0.6-2.5-0.1-2.2,2.5c12-3.3,23.3,1.7,34.9,3.1
		c5.2,0.6,7.5-4.1,12.2-3.7c25.9,1.7,51-2.8,75.4-11c8.4-2.8,18.2-2,25.4-8.6c1.1-1,3.3-0.8,4.9-1c13-1.5,23.4-11.8,37-11.2
		c7.5-11.1,21.2-10.5,31.7-15.4c25.7-12,51.3-24,76.2-37.7c7.2-4,12.7-10.8,20.7-13.2c9.6-2.9,17-9.2,25.3-14.3
		c6-3.7,11.5-8.5,16.9-12.5c9.1-6.7,18.4-13.4,27.4-20.3c6.8-5.2,11.8-12.4,19.4-16.4c5-2.6,8.2-6.4,11.1-11.1
		c4.3-6.9,8.8-14.4,15.1-19c4.6-3.4,7.1-6.8,8.6-11.6c1.1-3.6,2.3-7.2,5-9.8c4.9-5,7-11.1,9.3-17.6c3.7-10.1,8.4-19.6,11.8-29.9
		c4.2-12.7,5.6-25.8,7.8-38.4c3.9-22.8-0.7-45.9-3.4-68.7c-1.1-8.7-7.4-16.9-6.9-26.5c0-0.8-1.3-1.8-2.1-2.6
		c-4.4-4.3-5.7-10.1-7.6-15.5c-4.1-11.9-9.6-24.7-17.4-32.8c-11.7-12.2-22-25.9-35.1-37.2c-24.3-21.1-51.8-35.1-81-46.6
		c-15.5-6.1-32.3-6.5-48.7-8.2c-10.8-1.1-21.8-0.2-32.7-0.2c-2.8,0-5.6,0.2-8.4,0.9c-12.9,3.1-26.2,4.2-38.9,9
		c-4.6,1.7-9.5,1.5-13.8,5.2c-3.1,2.7-7.3,5-12.1,5.6c-4.8,0.6-8.6,3.7-12.8,6c-11.5,6.2-21.6,14.4-31.7,22.3
		c-6.8,5.4-15.9,8.9-20.2,16.5c-4.4,7.7-10.9,13-16.5,19.4c-2.4,2.8-4.9,5.2-6.7,8.7c-5.9,11.6-14.2,22-22.4,31.6
		c-6.9,8.1-10.9,17.7-17.6,25.7c-6.7,7.9-8.4,19.6-14.6,28.9c-6.9,10.4-12.2,22.4-19.1,32.6c-10.1,14.9-13.4,32.4-22.5,47.6
		c-5.1,8.5-5.5,19.5-13,27.1c-0.5,0.5-0.7,1.6-0.6,2.4c1.7,12-8,20.6-9.5,31.6c-1.5,10.8-9.3,19.6-8.7,31.5
		c0.2,4.5,1.9,16.1-9.9,15.7C360.1,458,360,457.5,359.8,457z"/>
	<path class="st5" d="M358.8,463.7c-6,14.5-6.5,30-8,45.2c-1.9,19.4-1.7,38.9,1.6,58.2c0.9,5.5,2.4,8.5,9.4,9.3
		c25.7,2.8,43,20.6,46.2,46.4c0.7,5.4,2.3,7.6,8,8.6c37.2,6.8,73.5,1.8,109.8-6.7c55.5-13,107.5-34.8,158.3-60.1
		c2.3-1.1,4.7-1.9,7.1-2.9c0.2,3.3-1.3,5.1-4.3,6.6c-9.7,4.8-19.4,9.5-29.1,14.4c-11.7,5.9-26,7.1-35.8,14.6
		c-8.9,6.9-19,7.9-28.1,10.8c-13.2,4.1-25.5,10.8-39.5,13c-9.8,1.6-20.3,2.7-29.5,8.4c-4.8,3-11.3,3-16.9,4.2
		c-12.8,2.8-26,5.3-39.5,4.3c-6.8-0.5-13.7-0.2-20.9,2c-5.3,1.6-12.6-2.7-19.5-2.3c-6.2,0.3-12.3,0.6-18.3-2.8
		c-2.6-1.5-4.5-2.2-5.2-5.6c-1.9-10.3-6.3-19.8-10-29.6c-1.6-4.3-5.9-4.2-8.6-6.2c-7.2-5.3-13.8-12-24.6-11.2
		c-7.9,0.6-14.9-8.7-15-18c-0.2-23.8-0.2-47.6,0-71.4c0.1-6.4,3.6-12.2,4.3-18.8c0.4-3.2,2.7-6.6,2.4-10.4c-0.3-3.7,1.5-5.3,5-5.3
		c0,0,0.3,0.3,0.3,0.3C358.8,460.4,358.8,462,358.8,463.7z"/>
	<path class="st5" d="M773.1,513.6c7-7.7,16.3-12.4,24.5-18.6c35.2-26.8,65.3-57.9,83.3-99.1c17.6-40.1,23.1-81.8,16.2-125.1
		c-6.8-42.3-24.5-79.5-52.8-111.6c-0.9-1-1.4-2.4-2.1-3.7c2.8,0,5.8-1,7.7,2.2c5.3,9,14.1,15.5,18.8,25.1c3.4,7,8.6,13.2,11.9,20.3
		c6.9,15,13.2,30.2,17.7,46.3c7.7,27.7,7.2,55.6,5.9,83.5c-0.4,8.6-1.2,18.3-5.4,26.8c-0.7,1.4-0.8,3.3-0.9,5
		c-0.4,4.1,1.4,8.9-4.2,11.2c-1,0.4-1.5,2.4-1.9,3.8c-4.6,17.6-13.1,33-22.6,48.6c-6,9.9-13.3,18.7-20.3,27.4
		c-9.1,11.3-21.9,19.6-32,30.2c-8.3,8.7-20,12.7-28,21.4C784.4,512.2,779.7,514.8,773.1,513.6z"/>
	<path class="st5" d="M828.8,142.2c-14.4-9.5-27.1-21.5-42.4-29.8c-42.2-23-87.1-31.9-134.8-26.3c-22.4,2.6-43.7,8.6-64.3,17.8
		c-36.2,16.1-64.6,41.6-89.5,71.8c-9.4,11.4-16,24.9-27,35c-1.1-5.9,0.8-10.4,5.4-14.3c9.4-8,14.3-19.5,21.1-29.4
		c2.5-3.7,6.3-4.1,8.5-7.4c5.7-8.8,13.7-15.6,20.8-23.3c2.1-2.2,5.4-2.6,7.9-4.8c11.3-10.6,23.6-19.7,37.9-26
		c19.6-8.6,39.3-16.6,60.5-21.2c22.5-4.9,45.3-6.6,67.7-3.8c13.7,1.7,27.8,6.3,41.4,8.4c17.2,2.7,30.7,11.7,45.2,18.9
		c13.1,6.5,27,12.9,36.3,25.7C825.4,136.2,830.1,137.1,828.8,142.2z"/>
	<path class="st5" d="M470.7,210.6c-5.4,12.7-14.2,23.3-21.2,35.1c-37.4,63.7-68.4,130.2-87.6,201.8c-0.3,1.1-0.9,2-1.4,3.1
		c-1.2-18.8,4.8-35.9,12.3-52.6c2-4.4,3-9.5,3.6-13.5c2-12.7,10.6-21.7,14.8-32.9c8.7-23.2,19-45.7,30.9-67.5
		c10.5-19.3,21.1-38.5,33.1-57c2.7-4.2,6.7-7.9,8.2-12.7C464.8,210,467.6,210.6,470.7,210.6z"/>
	<path class="st5" d="M359.8,457c0.2,0.5,0.2,1,0.1,1.5c-0.4,0.1-0.8,0.1-1.2,0.2c0,0-0.3-0.3-0.3-0.3
		C358.9,457.9,359.4,457.4,359.8,457z"/>
	<path class="st6" d="M358.7,458.7c0.4-0.1,0.8-0.2,1.2-0.2c11.9,0.4,10.2-11.2,9.9-15.7c-0.6-12,7.2-20.7,8.7-31.5
		c1.5-11,11.1-19.6,9.5-31.6c-0.1-0.8,0.1-1.9,0.6-2.4c7.5-7.6,7.9-18.6,13-27.1c9-15.1,12.4-32.6,22.5-47.6
		c6.9-10.2,12.1-22.2,19.1-32.6c6.2-9.3,7.9-21,14.6-28.9c6.8-8,10.7-17.7,17.6-25.7c8.2-9.6,16.5-20,22.4-31.6
		c1.8-3.5,4.3-5.9,6.7-8.7c5.6-6.4,12.1-11.7,16.5-19.4c4.4-7.6,13.4-11.1,20.2-16.5c10.1-8,20.2-16.1,31.7-22.3
		c4.2-2.3,8-5.4,12.8-6c4.8-0.6,9-2.9,12.1-5.6c4.3-3.8,9.2-3.5,13.8-5.2c12.7-4.8,26-5.9,38.9-9c2.9-0.7,5.6-0.9,8.4-0.9
		c10.9-0.1,21.9-0.9,32.7,0.2c16.4,1.6,33.3,2.1,48.7,8.2c29.2,11.5,56.8,25.5,81,46.6c13.1,11.4,23.4,25,35.1,37.2
		c7.8,8.1,13.3,20.9,17.4,32.8c1.9,5.4,3.2,11.2,7.6,15.5c0.8,0.8,2.1,1.8,2.1,2.6c-0.5,9.7,5.9,17.8,6.9,26.5
		c2.7,22.8,7.3,45.9,3.4,68.7c-2.2,12.7-3.7,25.7-7.8,38.4c-3.4,10.4-8.2,19.9-11.8,29.9c-2.4,6.5-4.4,12.6-9.3,17.6
		c-2.6,2.7-3.9,6.2-5,9.8c-1.5,4.8-4,8.2-8.6,11.6c-6.3,4.6-10.8,12.1-15.1,19c-3,4.7-6.1,8.5-11.1,11.1c-7.6,4-12.6,11.2-19.4,16.4
		c-9,6.9-18.4,13.5-27.4,20.3c-5.4,4-10.9,8.8-16.9,12.5c-8.3,5.1-15.7,11.4-25.3,14.3c-8,2.5-13.5,9.2-20.7,13.2
		c-24.9,13.7-50.5,25.7-76.2,37.7c-10.5,4.9-24.2,4.3-31.7,15.4c-13.6-0.5-24,9.7-37,11.2c-1.7,0.2-3.9,0-4.9,1
		c-7.2,6.6-16.9,5.8-25.4,8.6c-24.4,8.1-49.6,12.7-75.4,11c-4.7-0.3-7,4.4-12.2,3.7c-11.6-1.4-22.9-6.5-34.9-3.1
		c-0.3-2.6,1.5-1.9,2.2-2.5c2.1-1.9-0.4-1.5-0.9-1.4c-6.2,0.8-6.7-2.9-6.9-7.9c-0.5-14.1-9.2-23.9-18.7-32.8
		c-8.3-7.8-19-10.9-30.4-11.3c-4.5-0.2-5.3-5.6-5.4-8.1c-0.6-15-7-29.5-3.1-44.8c2.3,1.3-0.2,4.5,1.7,6.1c0.3-0.3,0.7-0.6,0.7-0.9
		c0.1-6.3,0.8-12.7,0-18.9c-1.5-11.7,5.2-22.3,3.7-33.9c-0.4-2.7,0.9-5.8-1.6-8.1C358.8,462,358.8,460.4,358.7,458.7z M773.7,182.9
		c-4.3-0.4-6.8,0.5-7,5.9c-0.3,7.2-0.1,12.8,5.3,19.2c5.5,6.5,11.8,11.9,18.7,10.5c6.4-1.3,14.5,1.9,20.3-7.9
		c8-13.5,3.8-34.6-10.9-40.7C788,165,773.8,171.9,773.7,182.9L773.7,182.9z M746.4,429.6c0,0.5,0,1,0,1.5c-0.5,0.1-1,0.1-1.5,0.1
		c-2.8-0.1-5.7-0.9-8.3,1c-9.3,6.7-17.4,15.5-29.9,16.8c-1.7,0.2-4,2.8-4.5,4.8c-1,3.2-3,4.1-5.6,5.6c-6.5,3.6-10,10-11.9,16.9
		c-1.3,4.6-1.2,9.9,5.6,11.2c0.4,0.1,0.6,1.5,0.9,2.3c3.8,12.1,16.4,16.5,28.1,11.9c10.5-4.1,17.5-12.8,27.4-17.7
		c3.3-1.6,8.2,1,9.9-3.6c2.4-6.8,8.5-8.6,13.9-11.4c4.5-2.3,8.8-4.8,11.6-9.5c1.7-2.8,4.6-5.2,7.3-7.1c9.1-6.3,18.2-12,25.1-21.5
		c9.9-13.5,18.4-27.8,27.4-41.8c14.6-22.6,17.6-48.5,21.7-74.1c2.3-14.1-5.1-27.3-3.7-41.3c0.1-0.9-1-1.9-1.5-2.9
		c-6.4-11.4-15.2-17.4-29.2-15.8c-10.9,1.3-16.7,5.4-17.2,16.6c-0.9,23.2,2.5,46.7-3.6,69.6c-2.6,9.6-2.5,20.7-13.5,26.1
		c-2.2,1.1-4,3.4-3.5,6.4c0.7,3.8-1.2,6.3-3.4,9.2c-10.4,13.9-21.7,27.1-36.2,36.7C746.8,422.8,745.9,425.2,746.4,429.6z"/>
	<path class="st2" d="M744.8,431.2c0.5,0,1,0,1.5-0.1c3.3-0.5,7.2,1.4,9.8-1.7c11.1-13.1,28.2-20,36.6-36.1
		c4.8-9.1,11.9-16.9,16.6-26.3c2.4-4.8,2.9-9.8,4.1-14.3c3.2-12.4,9.6-24,8.7-37.5c-0.8-11.7-0.3-23.5-0.2-35.3
		c0.1-7.8,5-13.7,11.7-14.3c11.7-1,12.6-0.5,15.1,10.8c0.7,3,0.7,6.2,0.8,9.4c0.1,22,0.1,44,0.1,66l0,0c-2.9-0.1-3.9,2.1-4.7,4.2
		c-3.7,10.5-7.5,21.1-12.9,30.8c-2.3,4.2-3.5,8.2-3.3,12.9c-0.9,1.3-1.8,2.7-2.7,4c-3.8-0.2-5.9,1.7-8.1,4.9c-2.3,3.2-2.7,7.3-6,10
		c-11.2,9.3-20.2,21.1-32.5,29.4c-3.1,2.1-6.7,4.7-5.3,9.7c-16.8,13.7-35.2,25.1-53.5,36.5c-9.2,5.7-19.5,3.6-25.9-4.8
		c-5.9-7.7-4.6-18.1,3.4-25.3c2.5-2.3,5.5-4.1,8.3-6C719.4,449.5,733.2,442,744.8,431.2z"/>
	<path class="st4" d="M744.8,431.2c-11.6,10.8-25.4,18.3-38.4,27c-2.8,1.9-5.8,3.7-8.3,6c-8,7.2-9.3,17.5-3.4,25.3
		c6.4,8.4,16.7,10.5,25.9,4.8c18.3-11.4,36.7-22.8,53.5-36.5c20.5-14.9,39.9-31,52-54c0.9-1.3,1.8-2.7,2.7-4
		c10.9-14.3,17.7-30.3,20.9-47.9c0,0,0,0,0,0c7.9-21.2,7.8-43.1,6-65.1c-0.2-2-0.7-3.9-0.9-5.9c-1.3-13.8-9.3-21.5-21.3-20.5
		c-12.4,1-18.7,10.3-17,24.8c7.4,64.8-21.6,112.9-70,144.5c-0.5-4.4,0.5-6.8,5.1-9.9c14.5-9.5,25.8-22.8,36.2-36.7
		c2.2-2.9,4.1-5.4,3.4-9.2c-0.5-3,1.3-5.3,3.5-6.4c11.1-5.4,11-16.5,13.5-26.1c6.1-22.9,2.7-46.4,3.6-69.6
		c0.4-11.1,6.3-15.3,17.2-16.6c14-1.6,22.8,4.4,29.2,15.8c0.5,1,1.6,2,1.5,2.9c-1.4,14,5.9,27.2,3.7,41.3
		c-4.1,25.6-7.1,51.5-21.7,74.1c-9,14-17.5,28.3-27.4,41.8c-6.9,9.4-16,15.1-25.1,21.5c-2.8,1.9-5.7,4.3-7.3,7.1
		c-2.8,4.7-7,7.1-11.6,9.5c-5.4,2.8-11.5,4.6-13.9,11.4c-1.6,4.5-6.6,1.9-9.9,3.6c-9.8,4.8-16.8,13.6-27.4,17.7
		c-11.7,4.6-24.3,0.2-28.1-11.9c-0.3-0.8-0.4-2.2-0.9-2.3c-6.7-1.4-6.9-6.6-5.6-11.2c1.9-6.9,5.4-13.3,11.9-16.9
		c2.6-1.5,4.7-2.4,5.6-5.6c0.6-1.9,2.8-4.6,4.5-4.8c12.5-1.2,20.6-10,29.9-16.8C739,430.3,741.9,431.1,744.8,431.2z"/>
	<path class="st5" d="M746.4,429.6c48.5-31.6,77.4-79.8,70-144.5c-1.7-14.5,4.7-23.8,17-24.8c12-1,20,6.7,21.3,20.5
		c0.2,2,0.7,3.9,0.9,5.9c1.8,22.1,1.9,44-6,65.1c0-22,0-44-0.1-66c0-3.1-0.1-6.3-0.8-9.4c-2.5-11.3-3.4-11.8-15.1-10.8
		c-6.7,0.6-11.6,6.5-11.7,14.3c-0.1,11.8-0.6,23.6,0.2,35.3c0.9,13.5-5.5,25.2-8.7,37.5c-1.2,4.5-1.7,9.5-4.1,14.3
		c-4.8,9.4-11.8,17.2-16.6,26.3c-8.4,16.1-25.5,23-36.6,36.1c-2.6,3-6.5,1.2-9.8,1.7C746.3,430.6,746.4,430.1,746.4,429.6z"/>
	<path class="st4" d="M773.7,183c0.1-11.1,14.3-18,26.4-13c14.7,6,18.9,27.2,10.9,40.7c-5.8,9.7-13.8,6.5-20.3,7.9
		c-7,1.4-13.3-4-18.7-10.5c-5.4-6.4-5.6-12-5.3-19.2C766.9,183.5,769.5,182.6,773.7,183c-0.6,2.4-1.5,4.9-1.8,7.4
		c-1,9,2.2,16.1,10.2,20.6c6.4,3.6,12.9,5.8,19.2-0.3l0,0c8.4-4,12-12,9.3-20.8C805.7,173.2,789.1,170.1,773.7,183z"/>
	<path class="st5" d="M826.1,403.7c-12.1,23-31.4,39.1-52,54c-1.4-5,2.2-7.6,5.3-9.7c12.3-8.2,21.3-20,32.5-29.4
		c3.3-2.7,3.7-6.8,6-10C820.2,405.5,822.2,403.6,826.1,403.7z"/>
	<path class="st5" d="M849.7,351.9c-3.2,17.6-10,33.6-20.9,47.9c-0.3-4.6,1-8.7,3.3-12.9c5.5-9.7,9.2-20.3,12.9-30.8
		C845.7,353.9,846.7,351.7,849.7,351.9z"/>
	<path class="st5" d="M801.4,210.6c-6.3,6.1-12.8,3.9-19.2,0.3c-8.1-4.5-11.3-11.6-10.2-20.6c0.3-2.5,1.2-4.9,1.8-7.4c0,0,0,0,0,0
		c15.3-12.8,31.9-9.8,37,6.8C813.4,198.7,809.8,206.6,801.4,210.6c-0.8-3.8,0.8-6.6,3.6-9c4.4-3.7,4.1-7.7,0.7-11.9
		c-1.4-1.8-3.5-3.5-3.9-5.5c-1.8-7.7-7.8-4.1-11.9-4.5c-5-0.5-10.1,2-12.1,6.1c-5.1,10.1,4.8,24.7,16,24.8
		C796.3,210.5,798.8,210.6,801.4,210.6z"/>
	<path class="st2" d="M801.4,210.6c-2.6,0-5.2-0.1-7.7-0.1c-11.2,0-21-14.6-16-24.8c2-4,7.1-6.6,12.1-6.1c4.2,0.4,10.1-3.2,11.9,4.5
		c0.5,2,2.5,3.7,3.9,5.5c3.4,4.2,3.8,8.2-0.7,11.9C802.2,204,800.6,206.8,801.4,210.6C801.4,210.6,801.4,210.6,801.4,210.6z"/>
</g>
</svg>
