<?xml version="1.0" encoding="utf-8"?>
<!-- Generator: Adobe Illustrator 28.3.0, SVG Export Plug-In . SVG Version: 6.00 Build 0)  -->
<svg version="1.1" id="Laag_1" xmlns="http://www.w3.org/2000/svg" xmlns:xlink="http://www.w3.org/1999/xlink" x="0px" y="0px"
	 viewBox="0 0 1000 1000" style="enable-background:new 0 0 1000 1000;" xml:space="preserve">
<style type="text/css">
	.st0{fill:#00FF00;stroke:#000000;stroke-width:69.9854;stroke-miterlimit:10;}
	.st1{fill:none;stroke:#000000;stroke-width:69.9854;stroke-miterlimit:10;}
	.st2{fill:#262122;}
	.st3{fill:#ECECEC;}
	.st4{fill:#D6854A;}
	.st5{fill:#46200A;}
	.st6{fill:#F8862D;}
	.st7{fill:#070504;}
	.st8{fill:#FD4756;}
	.st9{fill:#82D062;}
	.st10{fill:#96D87C;}
	.st11{fill:#F52C3A;}
	.st12{fill:#060604;}
	.st13{fill:#F98B48;}
	.st14{fill:#FDA978;}
	.st15{fill:#2DDDB4;}
	.st16{fill:#03BC6E;}
</style>
<g>
	<path class="st7" d="M780.9,40.2c27.1,25.3,50.1,54.1,70.5,85c44.1,66.9,70.9,140.2,80.9,219.6c8.3,66.5,3.4,132.2-13.6,197
		c-2.8,10.5-6.4,13.2-16.9,12.9c-5-1.7-8-5.3-9.8-10.1c-0.7-3.8,0.7-7.4,1.7-10.9c20.7-77.5,22.1-155.3,4.4-233.5
		C879,215.6,839.8,141.3,781.3,77.2c-4-4.4-6.3-5-10.6-0.5c-9.9,10.4-20,20.6-30.4,30.5c-3.7,3.5-3.1,5.5,0,8.9
		c18,19.4,34.1,40.3,48,62.9C842.6,267,862.9,362.5,850,465c-8.6,69-32.9,132.3-72.8,189.1c-65.4,93-153.8,152.1-264.8,176.9
		c-55.9,12.5-112.1,13-168.5,2.8c-8.9-1.6-12.9-6.6-12.6-15.4c2.7-8.2,8.4-11,16.7-9.7c8.8,1.4,17.6,2.9,26.4,3.7
		c48.6,4.8,96.7,2.3,144.4-9.5c49.1-12.2,94.3-32.5,135.6-61.5C721,694.6,769.6,633,799.8,557.3c6.7-16.6,13.4-33.4,15.6-51.5
		c6.8-21.8,9.2-44.2,11.1-66.8c4.1-50.3-1-99.8-15.6-148c-17.6-58.3-46.9-110.4-87.9-155.7c-4.5-5-6.6-4.5-10.9-0.1
		c-50.5,50.9-101.4,101.4-151.8,152.4c-7.2,7.3-14.2,11.2-24.1,7.3c-6-12.7-5.7-14.5,4.5-24.6c73.9-73.9,147.8-147.7,221.6-221.6
		c2.8-2.8,5.5-5.7,8.3-8.5C774,40.2,777.5,40.2,780.9,40.2z"/>
	<path class="st7" d="M892.5,578.5c9.5,6.2,11.2,10.8,7,20.8c-67.3,158.7-183,265.1-350.2,307c-184.9,46.3-349.1,0.4-488.7-130.3
		c-2.6-2.5-5-5.3-7.4-8c0-3.4,0-6.9,0-10.3C158.6,652.3,263.9,547,369.3,441.7c42.1-42.1,84.1-84.1,126.2-126.2
		c9.3-9.3,11.5-9.7,23.2-4.1c5.1,9.4,2.2,16.5-5.5,23.2c-6.5,5.5-12.1,12.1-18.2,18.1C403,444.7,310.9,536.8,218.9,628.9
		c-19.7,19.8-40.2,38.9-58.9,59.7c-5.4,3.3-8.9,8.6-13.6,12.7c-2.9,2.5-2.5,4.5,0.1,6.7c5.7,5,11.3,10.3,17.2,15.2
		c39.2,32,82.5,56.5,130.9,71.7c9,2.8,12.5,8.2,12.1,17.1c-6.1,9.7-10.1,11.1-20.7,7.5c-15.5-5.3-30.7-11.2-45.5-18
		c-41-18.9-78.1-43.5-111.3-74c-3.3-3-5.3-4.2-8.8-0.2c-6.6,7.5-13.8,14.5-20.8,21.7c-2.5,2.3-4.9,4.8-7.7,6.8
		c-6.6,4.8-6.6,8.4-0.1,14.2c58.6,52.7,125.5,89.9,201.7,110.4c66.9,18,134.7,21.8,203.1,11.2c78.3-12.1,149.5-41.9,213.5-88.7
		c32.3-23.6,61.1-51.1,86.8-81.7c32.9-39.2,59-82.6,77.8-130.2C878,582.6,882.7,577.2,892.5,578.5z"/>
	<path class="st8" d="M160,688.6c18.7-20.8,39.2-39.9,58.9-59.7c92-92.1,184.1-184.2,276.2-276.3c6.1-6.1,11.7-12.6,18.2-18.1
		c7.7-6.6,10.7-13.8,5.5-23.2c5.4-5.9,9.9-12.8,17.4-16.4c10,3.9,16.9-0.1,24.1-7.3c50.4-51,101.3-101.5,151.8-152.4
		c4.3-4.4,6.4-4.9,10.9,0.1c41,45.3,70.3,97.4,87.9,155.7c14.5,48.2,19.7,97.6,15.6,148c-1.9,22.6-4.3,45.1-11.1,66.8
		c-6.8,15.3-12.7,31.2-20.7,45.9c-14.3,26.6-30.2,52.2-49.6,75.7c-26.3,31.8-56.6,58.8-90.2,82.3c-35.1,24.6-74.4,41.3-115.1,54
		c-29.5,9.2-60.1,14.1-90.9,15.8c-37.2,2.1-74.3,0.4-111.1-7.3c-47.7-10-92.4-27.5-134.1-52.6C188.4,710.6,173.3,700.8,160,688.6z
		 M597.4,558.6c-0.3-4.7-1.7-10-5.5-14.1c-8.5-9.1-18.9-15-31.4-16.1c-13.1-1.1-21.1,7.9-19.1,21.1c1.6,10.2,6.3,19.1,13,26.7
		c7.2,8.1,17.3,10,27.4,6C591.3,578.4,597.4,569.4,597.4,558.6z M340.3,627.9c-0.3-3.1-0.4-5.1-0.6-7.1c-0.9-7.9-4.5-14.2-12.1-17.3
		c-7.6-3.1-14-0.1-19.8,4.7c-6.2,5.2-10.8,11.6-14.6,18.8c-6.2,11.9-2.5,26.6,8.6,33.2c11.6,6.9,26.2,3.1,33.7-8.5
		C340.5,644,339.5,635.3,340.3,627.9z M425.6,623.2c-0.1,19.7,6.8,29.2,20,31.4c12.3,2.1,24.2-4.7,27.9-16
		c4.3-13.2-6.4-37.6-19.1-43.5c-8.2-3.8-16.6-1.7-21.8,5.9C427.2,608.9,425.8,617.9,425.6,623.2z M639.9,412.6
		c-6.5-0.6-13.5,1.3-20.2,3.8c-10,3.6-15.2,12.6-13,21.4c4,15.5,32.5,28.6,46.9,21.5c11.5-5.7,16.5-15.9,13.7-28.4
		C664.7,419.3,654.8,412.5,639.9,412.6z M643.7,327.2c4.9-0.4,8.1-0.4,11.2-0.9c12.4-1.9,22.8-14.4,21.7-25.9
		c-1.3-13.4-11.9-23.8-25.1-23.1c-14.9,0.8-25.3,9.8-32.9,21.6c-7.1,11.1-3,21.1,9.2,26.2C633.6,327.5,639.6,327.1,643.7,327.2z"/>
	<path class="st9" d="M892.5,578.5c-9.8-1.4-14.6,4.1-17.9,12.4c-18.8,47.6-44.9,91-77.8,130.2c-25.7,30.6-54.5,58-86.8,81.7
		c-64,46.8-135.2,76.6-213.5,88.7c-68.4,10.6-136.1,6.8-203.1-11.2c-76.2-20.5-143.1-57.7-201.7-110.4c-6.5-5.9-6.5-9.4,0.1-14.2
		c2.7-2,5.1-4.5,7.7-6.8c10.7,3.5,18.3,11.8,27.2,18.1c20.1,14.2,40.6,27.6,62.3,39c35.8,18.7,73.4,32.5,112.5,42.4
		c34,8.6,68.5,12,103.3,14.4c20.4,1.4,40.6-2.1,61-1.8c6.2,0.1,12.6-0.9,18.7-2c26.2-4.9,52.5-8.6,78.2-16.5
		c25.5-7.9,50.5-17,74.5-28.3c25.5-12,49.6-26.5,72.5-43c25-18.1,48.7-37.6,70.5-59.3c6.6-6.6,12-14.7,18.6-21.2
		c11.2-11,20.9-23.2,29.8-35.8c14.4-20.5,27.9-41.8,38.2-64.9c4.9-11,12.7-20.6,14.9-33.2c0.7-4.3,4.3-10.2,10.3-11.9
		c1.8,4.8,4.8,8.4,9.8,10.1C896.8,561.9,896.4,570.9,892.5,578.5z"/>
	<path class="st10" d="M892,544.7c-6,1.8-9.6,7.6-10.3,11.9c-2.2,12.6-10,22.2-14.9,33.2c-10.2,23-23.7,44.3-38.2,64.9
		c-8.9,12.7-18.6,24.8-29.8,35.8c-6.6,6.4-11.9,14.5-18.6,21.2c-21.8,21.8-45.5,41.3-70.5,59.3c-22.9,16.6-47,31.1-72.5,43
		c-24.1,11.3-49,20.4-74.5,28.3c-25.7,7.9-52,11.6-78.2,16.5c-6.2,1.2-12.5,2.1-18.7,2c-20.4-0.3-40.6,3.2-61,1.8
		c-34.7-2.4-69.3-5.8-103.3-14.4c-39.2-10-76.8-23.8-112.5-42.4c-21.8-11.3-42.2-24.8-62.3-39c-8.8-6.2-16.5-14.5-27.2-18.1
		c7-7.2,14.1-14.2,20.8-21.7c3.5-4,5.5-2.8,8.8,0.2c33.2,30.5,70.4,55.1,111.3,74c14.8,6.8,30,12.7,45.5,18
		c10.6,3.6,14.6,2.2,20.7-7.5c8.4,1.5,16.7,3.3,24.7,6.5c-0.3,8.8,3.7,13.8,12.6,15.4c56.4,10.2,112.6,9.7,168.5-2.8
		c111-24.8,199.5-84,264.8-176.9c40-56.8,64.2-120.1,72.8-189.1c12.8-102.5-7.4-198-61.7-286.1c-13.9-22.5-30-43.4-48-62.9
		c-3.2-3.4-3.7-5.4,0-8.9c10.4-9.9,20.6-20.1,30.4-30.5c4.2-4.5,6.6-3.9,10.6,0.5c58.5,64.2,97.7,138.4,116.8,223.1
		c17.6,78.1,16.2,156-4.4,233.5C892.7,537.3,891.3,540.8,892,544.7z"/>
	<path class="st11" d="M331.3,818.4c-7.9-3.2-16.3-5.1-24.7-6.5c0.4-8.8-3.1-14.2-12.1-17.1c-48.3-15.2-91.7-39.8-130.9-71.7
		c-5.9-4.8-11.5-10.1-17.2-15.2c-2.6-2.2-3-4.2-0.1-6.7c4.7-4,8.2-9.4,13.6-12.7c13.3,12.3,28.5,22,43.9,31.2
		c41.7,25.1,86.4,42.6,134.1,52.6c36.7,7.7,73.9,9.3,111.1,7.3c30.8-1.7,61.4-6.6,90.9-15.8c40.7-12.8,80-29.5,115.1-54
		c33.5-23.5,63.9-50.5,90.2-82.3c19.4-23.5,35.3-49.1,49.6-75.7c7.9-14.7,13.9-30.6,20.7-45.9c-2.2,18.1-8.9,34.9-15.6,51.5
		C769.6,633,721,694.6,654.3,741.5c-41.3,29-86.5,49.3-135.6,61.5c-47.7,11.8-95.7,14.3-144.4,9.5c-8.8-0.9-17.6-2.4-26.4-3.7
		C339.7,807.5,334,810.3,331.3,818.4z"/>
	<path class="st7" d="M597.4,558.6c0.1,10.8-6.1,19.8-15.5,23.6c-10.1,4-20.2,2.1-27.4-6c-6.8-7.6-11.5-16.5-13-26.7
		c-2-13.2,6-22.3,19.1-21.1c12.4,1.1,22.9,7,31.4,16.1C595.6,548.6,597,553.9,597.4,558.6z"/>
	<path class="st7" d="M340.3,627.9c-0.8,7.4,0.2,16.1-4.8,23.8c-7.5,11.6-22.1,15.4-33.7,8.5c-11-6.6-14.7-21.3-8.6-33.2
		c3.7-7.2,8.4-13.6,14.6-18.8c5.7-4.8,12.2-7.8,19.8-4.7c7.6,3.1,11.2,9.3,12.1,17.3C339.9,622.8,340,624.8,340.3,627.9z"/>
	<path class="st7" d="M425.6,623.2c0.2-5.3,1.5-14.3,6.9-22.1c5.2-7.6,13.7-9.8,21.8-5.9c12.7,5.9,23.4,30.3,19.1,43.5
		c-3.7,11.2-15.5,18-27.9,16C432.4,652.4,425.5,642.9,425.6,623.2z"/>
	<path class="st7" d="M639.9,412.6c14.9-0.1,24.8,6.7,27.4,18.3c2.8,12.5-2.2,22.7-13.7,28.4c-14.4,7.1-43-6-46.9-21.5
		c-2.2-8.7,3-17.7,13-21.4C626.4,413.9,633.4,412,639.9,412.6z"/>
	<path class="st7" d="M643.7,327.2c-4.2-0.1-10.2,0.3-15.9-2c-12.2-5.1-16.3-15.1-9.2-26.2c7.6-11.8,18-20.9,32.9-21.6
		c13.2-0.7,23.9,9.6,25.1,23.1c1.1,11.5-9.4,24-21.7,25.9C651.9,326.8,648.7,326.8,643.7,327.2z"/>
</g>
</svg>
