<?xml version="1.0" encoding="utf-8"?>
<!-- Generator: Adobe Illustrator 28.3.0, SVG Export Plug-In . SVG Version: 6.00 Build 0)  -->
<svg version="1.1" id="Laag_1" xmlns="http://www.w3.org/2000/svg" xmlns:xlink="http://www.w3.org/1999/xlink" x="0px" y="0px"
	 viewBox="0 0 1000 1000" style="enable-background:new 0 0 1000 1000;" xml:space="preserve">
<style type="text/css">
	.st0{fill:#00FF00;stroke:#000000;stroke-width:69.9854;stroke-miterlimit:10;}
	.st1{fill:none;stroke:#000000;stroke-width:69.9854;stroke-miterlimit:10;}
	.st2{fill:#262122;}
	.st3{fill:#ECECEC;}
	.st4{fill:#D6854A;}
	.st5{fill:#46200A;}
	.st6{fill:#F8862D;}
	.st7{fill:#070504;}
	.st8{fill:#FD4756;}
	.st9{fill:#82D062;}
	.st10{fill:#96D87C;}
	.st11{fill:#F52C3A;}
	.st12{fill:#060604;}
	.st13{fill:#F98B48;}
	.st14{fill:#FDA978;}
	.st15{fill:#2DDDB4;}
	.st16{fill:#03BC6E;}
</style>
<g>
	<path class="st12" d="M932,464.9c-3.9,4.4-3.3,10.3-4.7,15.5c-20.6,78.2-100.2,124.9-178.4,104.3c-6.5-1.7-8.8-0.7-10.8,5.9
		c-15,51.4-45.8,92.3-84.7,128.2c-78.9,72.7-169,126.5-270,162.2c-11,3.9-14.4,2.9-20.5-6.3c-0.8-10.4,1.2-13.5,10.7-17
		c10.5-3.9,21.1-7.8,31.5-11.9c87.2-34.9,165.3-84.1,234-148.4c24.2-22.6,45.5-47.4,60.2-77.3c25.2-51,31.3-104.5,19.4-159.8
		c-5.5-25.5-14.3-50-29.2-71.8c-1.3-2.5-2.5-5-4-7.3c-71-109.8-220-141.3-331.2-70.2c-37.3,23.9-65.6,57-92.9,91
		c-70.2,87.7-117.3,186.8-144.6,295.5c-13,51.6-20.5,104-23.4,157.1c-0.6,10.2,0.1,20.2,6.7,28.8c5.6,10.3,14.4,16.3,25.6,18.7
		c16.2,3.6,32.5,0.2,48.6-1.2c49.6-4.3,98.3-13.6,146.3-26.6c8.5-2.3,14.9-0.6,19.1,7.4c-0.4,11.5-2.4,14.1-13.2,17.1
		c-59.7,16.6-120.6,26.4-182.4,29.8c-46.4,2.6-78.5-28.6-75.9-74.8C78.2,680.1,133.5,523,242,385.8c25.6-32.4,52.8-63.7,86.7-88
		c24.4-17.5,50.9-30.6,79.8-38.8c3.9-1.1,6.2-2,4.6-7.3c-24.9-86.3,33.4-174.1,120.6-185.2c0.6-0.1,1.1-1,1.7-1.5
		c11.8,0,23.6,0,35.4,0c0.6,0.5,1.1,1.4,1.7,1.5c35,4.3,64.3,19.9,88.3,45.6c3.4,3.7,5.3,4.3,9.2,0.5c21.3-20.1,46.4-32.8,75.2-38.2
		c11.7-2.2,16,0,19.2,11c-0.4,7.5-4.8,10.9-11.5,13.6c-6.3,2.5-12.9,2.4-19.2,4.5c-22.2,7.2-41,19.7-56,37.4
		c-32.7,38.6-53.6,83.3-67.5,131.6c-1.3,4.4,0.1,6.5,4,8.6c16.3,8.9,31.7,19.3,45.3,32c4.6,4.3,6.8,3.1,10.7-0.7
		c33.4-33.7,67.1-67.2,100.7-100.8c9.3-9.3,16-10.7,22.3-4.7c6.6,6.3,5.2,13.1-4.6,22.8c-33.8,33.8-67.4,67.6-101.4,101.3
		c-3.9,3.8-3.9,6.1-0.4,10c11.4,12.5,20.9,26.5,29,41.3c2.5,4.5,4.7,5.8,9.9,4.3c45.2-13.1,87.6-32.2,124.2-61.9
		c41.9-34,58.9-78.5,46.1-131.3c-11.8-48.8-44.3-79.5-92.9-92.6c-8.4-2.3-13.7-6.1-13.2-15.5c4.1-9.5,8.7-12,18.4-9.4
		c7.3,1.9,14.6,4.1,21.6,6.9c98.7,39.7,126.8,163.1,55.3,243.7c-3.8,4.3-4.3,6.2,0.2,10.4c21.4,19.7,35.4,43.9,42.6,72.1
		c1.3,5.2,0.7,11,4,15.7C932,437.9,932,451.4,932,464.9z M432.6,213.3c-0.5,10.1,2.2,20.7,4.7,31.4c1.2,5,3.5,6.8,8.8,6.1
		c16.4-2.3,32.9-4.3,49.5-2.5c5.1,0.6,5.9-2,6.1-6.4c0.8-15.8,0.9-31.7,4.8-47.3c4.5-18.1,10.4-35.4,20.7-51.1
		c5.2-7.9,11.8-9.7,18.6-5.6c6.6,4,7.8,11.2,2.8,19c-17.1,27.2-21.5,57.4-21.7,88.7c0,3.8,1.4,5.8,5,6.3c16.4,2.6,32.3,7.2,47.8,13
		c5,1.8,6.5,0.1,7.7-4.1c12.1-43.1,31-83,57.4-119.1c3.7-5.1,1.9-7.8-1.4-11.3c-31.2-33.1-69.7-45.9-113.9-37.4
		C472.5,103.7,432.5,154.1,432.6,213.3z M785.4,564.4c7,0.4,13.7-0.2,20.3-1.5c47.5-9.6,80.5-37.1,95.1-83.1
		c14.3-45,3.9-86-28.5-120.7c-10.5-11.2-10.8-10.9-23.3-2.1c-1.8,1.3-3.7,2.5-5.6,3.8c-32.9,21.3-68.1,37.8-105.9,48.6
		c-4.7,1.3-7.3,2.7-4.9,8.5c6.3,15.3,10.4,31.4,13.4,47.7c0.6,3.5,2,4.6,5.5,4.6c31-0.2,61-4.6,88-21.3c8.2-5.1,15.1-4.4,19.3,1.7
		c4.7,6.7,2.9,13.8-5.2,19.3c-28.9,19.6-62.5,23.2-95.8,26.9c-5.8,0.7-8.4,1.1-8.1,7.8c0.8,16,0.4,32-2.8,47.8
		c-1,5.1,1.8,6.5,5.6,7.4C763.3,562.5,774.2,565.2,785.4,564.4z"/>
	<path class="st13" d="M339.8,881.7c-4.3-8-10.7-9.7-19.1-7.4c-48,13-96.8,22.3-146.3,26.6c-16.1,1.4-32.4,4.8-48.6,1.2
		c-11.1-2.5-20-8.5-25.6-18.7c2.5-1.6,5.2-1.8,8.1-1.7c26.7,1.4,53-3.8,79.2-7.3c29.8-4,59.3-10.7,88.5-18.1
		c27.4-6.9,54-15.9,80.6-25.1c20-6.9,39.3-15.3,58.4-24.4c26.2-12.4,52.1-25.5,76.8-40.9c12.8-8,25.1-16.6,37.7-24.9
		c20.9-13.9,40.8-29.2,59.5-45.7c16.3-14.3,32.6-28.9,47.4-45c12.1-13.2,23.7-26.9,31.9-42.6c9.2-17.4,18.6-34.9,24-54.3
		c4.5-16.2,9.2-32.5,9.9-49.2c1.6-34.6,1.5-69.3-10.8-102.7c-1.5-4-3.5-8.4-1.9-13.1c14.9,21.8,23.8,46.3,29.2,71.8
		c11.9,55.4,5.8,108.8-19.4,159.8c-14.8,29.9-36.1,54.6-60.2,77.3c-68.6,64.2-146.7,113.5-234,148.4c-10.4,4.2-21,8-31.5,11.9
		c-9.5,3.5-11.5,6.7-10.7,17C355.2,877,347.9,880.6,339.8,881.7z"/>
	<path class="st14" d="M689.5,388.6c-1.6,4.7,0.4,9.1,1.9,13.1c12.2,33.3,12.3,68,10.8,102.7c-0.8,16.7-5.4,32.9-9.9,49.2
		c-5.4,19.4-14.8,36.9-24,54.3c-8.3,15.6-19.8,29.4-31.9,42.6c-14.8,16.1-31.1,30.6-47.4,45c-18.8,16.5-38.6,31.8-59.5,45.7
		c-12.5,8.3-24.9,16.9-37.7,24.9c-24.6,15.5-50.5,28.5-76.8,40.9c-19.1,9-38.4,17.5-58.4,24.4c-26.6,9.1-53.2,18.2-80.6,25.1
		c-29.3,7.4-58.7,14-88.5,18.1c-26.2,3.5-52.5,8.7-79.2,7.3c-2.9-0.1-5.6,0.1-8.1,1.7c-6.6-8.6-7.2-18.6-6.7-28.8
		c2.9-53.1,10.4-105.5,23.4-157.1c27.3-108.7,74.4-207.8,144.6-295.5c27.2-34,55.5-67.1,92.9-91c111.2-71.1,260.2-39.5,331.2,70.2
		C687.1,383.6,688.2,386.1,689.5,388.6z M536.3,682.7c0-13.1-9.8-27.9-24.2-33.8c-15.5-6.3-29.7-3.7-42.2,7.3
		c-6.2,5.5-6.7,12.2-2.2,17.9c4.4,5.5,11.2,6.1,18,1.7c9.3-6.1,15.5-6.2,21.1-0.3c5.2,5.5,5,12.1-0.6,20.5
		c-4.4,6.6-3.9,13.7,1.5,18.1c5.5,4.5,13.3,3.5,18.7-2.6C533,704,536,695.1,536.3,682.7z M421.8,628.8c11.6,0.2,17.2-3.6,17.5-12.1
		c0.3-8.6-5-12.8-16.6-13.2c-17.9-0.7-30-13.7-30.7-33.2c-0.3-8.7-5-14-12.3-14.1c-7.8-0.1-12.7,5.2-13,14.3
		C365.7,601.5,390.9,628.2,421.8,628.8z M342.1,486.4c-0.3-5.4-2.4-9.3-7.3-11.6c-4.9-2.3-9.4-1.7-13.2,1.8
		c-6.1,5.7-12.2,11.5-17.8,17.7c-4.7,5.3-4.7,11.4,0.1,16.7c4.7,5.3,11.1,6.2,16.5,1.6c6.8-5.7,12.8-12.4,19.1-18.8
		C341.4,491.8,341.9,488.9,342.1,486.4z"/>
	<path class="st15" d="M764.4,85.4c8.4-1.3,16.9-0.2,25.4-0.2c-0.5,9.4,4.8,13.2,13.2,15.5c48.6,13.1,81,43.8,92.9,92.6
		c12.8,52.8-4.3,97.3-46.1,131.3c-36.6,29.7-79,48.9-124.2,61.9c-5.2,1.5-7.4,0.2-9.9-4.3c-8.1-14.8-17.6-28.8-29-41.3
		c-3.5-3.9-3.5-6.1,0.4-10c33.9-33.6,67.6-67.5,101.4-101.3c9.8-9.8,11.1-16.5,4.6-22.8c-6.3-6-13-4.6-22.3,4.7
		c-33.6,33.6-67.2,67.1-100.7,100.8c-3.8,3.9-6.1,5-10.7,0.7c-13.6-12.7-28.9-23.2-45.3-32c-3.9-2.1-5.3-4.2-4-8.6
		c13.9-48.3,34.8-93,67.5-131.6c15-17.7,33.8-30.2,56-37.4c6.3-2,12.8-1.9,19.2-4.5C759.7,96.3,764,92.9,764.4,85.4z"/>
	<path class="st16" d="M432.6,213.3c-0.1-59.2,39.9-109.6,96.9-120.5c44.3-8.5,82.7,4.4,113.9,37.4c3.3,3.5,5.1,6.2,1.4,11.3
		c-26.4,36.1-45.3,76-57.4,119.1c-1.2,4.2-2.7,6-7.7,4.1c-15.5-5.8-31.4-10.4-47.8-13c-3.6-0.6-5-2.5-5-6.3
		c0.2-31.3,4.6-61.5,21.7-88.7c4.9-7.9,3.8-15-2.8-19c-6.8-4.1-13.4-2.4-18.6,5.6c-10.2,15.7-16.2,33-20.7,51.1
		c-3.9,15.6-4,31.5-4.8,47.3c-0.2,4.4-0.9,7-6.1,6.4c-16.6-1.8-33.1,0.1-49.5,2.5c-5.3,0.8-7.6-1-8.8-6.1
		C434.8,234,432.1,223.4,432.6,213.3z"/>
	<path class="st16" d="M785.4,564.4c-11.2,0.8-22.1-1.9-33-4.7c-3.8-1-6.6-2.3-5.6-7.4c3.2-15.8,3.6-31.8,2.8-47.8
		c-0.3-6.8,2.3-7.2,8.1-7.8c33.4-3.8,66.9-7.4,95.8-26.9c8.1-5.5,9.9-12.5,5.2-19.3c-4.2-6.1-11.1-6.8-19.3-1.7
		c-27,16.7-57,21.1-88,21.3c-3.5,0-4.8-1.1-5.5-4.6c-3-16.3-7.1-32.4-13.4-47.7c-2.4-5.9,0.1-7.2,4.9-8.5
		c37.8-10.8,73-27.2,105.9-48.6c1.9-1.2,3.8-2.5,5.6-3.8c12.6-8.8,12.9-9.1,23.3,2.1c32.4,34.7,42.8,75.7,28.5,120.7
		c-14.6,46.1-47.6,73.5-95.1,83.1C799,564.2,792.4,564.8,785.4,564.4z"/>
	<path class="st12" d="M536.3,682.7c-0.3,12.5-3.3,21.3-9.9,28.8c-5.4,6.1-13.2,7.1-18.7,2.6c-5.3-4.4-5.9-11.5-1.5-18.1
		c5.7-8.4,5.9-15,0.6-20.5c-5.6-5.8-11.8-5.7-21.1,0.3c-6.8,4.5-13.6,3.8-18-1.7c-4.5-5.7-4-12.4,2.2-17.9
		c12.5-11.1,26.6-13.6,42.2-7.3C526.5,654.7,536.3,669.6,536.3,682.7z"/>
	<path class="st12" d="M421.8,628.8c-30.9-0.6-56.1-27.3-55-58.3c0.3-9.1,5.2-14.4,13-14.3c7.3,0.1,11.9,5.5,12.3,14.1
		c0.8,19.5,12.8,32.5,30.7,33.2c11.6,0.4,16.9,4.7,16.6,13.2C439,625.2,433.4,629,421.8,628.8z"/>
	<path class="st12" d="M342.1,486.4c-0.2,2.5-0.6,5.4-2.6,7.5c-6.2,6.4-12.3,13.1-19.1,18.8c-5.4,4.5-11.8,3.6-16.5-1.6
		c-4.7-5.2-4.8-11.4-0.1-16.7c5.6-6.2,11.6-12.1,17.8-17.7c3.8-3.5,8.4-4.1,13.2-1.8C339.6,477.1,341.7,481,342.1,486.4z"/>
</g>
</svg>
