<?xml version="1.0" encoding="utf-8"?>
<!-- Generator: Adobe Illustrator 28.3.0, SVG Export Plug-In . SVG Version: 6.00 Build 0)  -->
<svg version="1.1" id="Laag_1" xmlns="http://www.w3.org/2000/svg" xmlns:xlink="http://www.w3.org/1999/xlink" x="0px" y="0px"
	 viewBox="0 0 1000 1000" style="enable-background:new 0 0 1000 1000;" xml:space="preserve">
<style type="text/css">
	.st0{fill:#00FF00;stroke:#000000;stroke-width:69.9854;stroke-miterlimit:10;}
	.st1{fill:none;stroke:#000000;stroke-width:69.9854;stroke-miterlimit:10;}
</style>
<rect x="111.1" y="112.1" class="st0" width="781.5" height="781.5"/>
<path d="M378.1,622.3L378.1,622.3c6.6-15.4,13.2-30.9,19.9-46.3c-8.4-30.7-22-98.4,6.6-172.1c7.4-19,51.7-133.2,152.3-145.6
	c34.6-4.3,91.6,1.6,119.2,39.7c46.2,63.9-18.5,179.5-76.1,238.3c-48.1,49.1-102.4,70.2-132.4,79.4c-11.8,21.3-23.6,42.5-35.4,63.8
	c22.3,22.7,24,54.6,9,71.9c-11.5,13.3-36.1,21.9-53,9.9c-14.8-10.5-14.8-30.6-14.8-33.1c-10.5,12.5-25.3,19.5-38.2,16.5
	c-21.9-5-34.2-37-23.2-59.6c8.2-16.7,28.4-26.5,49.6-23.2"/>
</svg>
